<?xml version="1.0" standalone="no"?>
<!DOCTYPE svg PUBLIC "-//W3C//DTD SVG 20010904//EN"
 "http://www.w3.org/TR/2001/REC-SVG-20010904/DTD/svg10.dtd">
<svg version="1.0" xmlns="http://www.w3.org/2000/svg"
 width="300.000000pt" height="300.000000pt" viewBox="0 0 300.000000 300.000000"
 preserveAspectRatio="xMidYMid meet">
<metadata>
Created by potrace 1.10, written by Peter Selinger 2001-2011
</metadata>
<g transform="translate(0.000000,300.000000) scale(0.100000,-0.100000)"
fill="#000000" stroke="none">
<path d="M1340 2539 c-104 -16 -273 -77 -367 -133 -270 -160 -440 -400 -503
-707 -42 -199 -13 -446 73 -632 174 -376 543 -617 946 -617 242 0 448 67 636
207 287 213 440 537 422 892 -23 470 -339 851 -807 973 -89 23 -302 32 -400
17z m412 -43 c227 -58 427 -190 568 -378 302 -400 275 -955 -64 -1315 -222
-236 -490 -345 -809 -330 -137 6 -237 29 -356 80 -430 187 -687 660 -606 1118
77 442 433 786 877 849 103 14 282 3 390 -24z"/>
<path d="M1375 2464 c-681 -101 -1051 -833 -724 -1430 131 -238 347 -403 624
-476 114 -30 336 -30 451 0 191 51 338 137 475 279 120 124 204 282 245 460
25 106 25 300 0 408 -82 359 -354 641 -711 737 -69 18 -292 32 -360 22z m319
-31 c163 -31 327 -118 458 -242 129 -122 212 -256 265 -428 25 -82 27 -101 27
-263 0 -161 -3 -182 -27 -263 -98 -318 -336 -556 -654 -654 -81 -24 -102 -27
-263 -27 -162 0 -181 2 -263 27 -355 110 -606 387 -677 751 -17 86 -15 259 5
355 83 406 433 724 839 760 101 9 188 4 290 -16z"/>
<path d="M1483 2233 c-23 -9 -14 -46 18 -79 31 -32 32 -54 3 -54 -8 0 -14 6
-14 14 0 8 -4 18 -10 21 -6 3 -10 -5 -10 -19 0 -27 25 -41 54 -30 24 9 19 47
-9 74 -27 25 -33 60 -11 60 7 0 17 -10 21 -22 l8 -23 4 24 c6 32 -20 48 -54
34z"/>
<path d="M1355 2178 l6 -53 -28 47 c-15 27 -32 48 -36 48 -11 0 2 -132 14
-144 15 -17 18 -2 8 43 -5 24 -8 45 -6 48 3 2 17 -17 31 -42 30 -51 50 -59 42
-17 -2 15 -8 48 -11 75 -9 66 -27 61 -20 -5z"/>
<path d="M1585 2218 c-8 -29 -12 -138 -5 -138 5 0 10 10 12 23 2 14 9 21 19
19 33 -5 58 68 32 94 -18 17 -52 18 -58 2z m50 -18 c9 -15 -6 -60 -21 -60 -9
0 -14 12 -14 35 0 34 20 49 35 25z"/>
<path d="M1211 2203 c-21 -4 -23 -9 -17 -41 13 -78 27 -114 43 -108 8 3 21 6
29 6 8 0 14 5 14 10 0 6 -11 8 -25 4 -15 -4 -25 -2 -25 4 0 6 -3 17 -6 25 -3
9 3 17 18 22 23 8 22 8 -4 12 -33 5 -39 38 -8 48 18 6 29 27 13 24 -5 -1 -19
-4 -32 -6z"/>
<path d="M1687 2148 c-30 -69 -32 -78 -17 -78 6 0 10 7 10 15 0 9 9 15 25 15
18 0 25 -5 25 -20 0 -11 5 -20 11 -20 8 0 9 11 5 31 -3 17 -6 51 -6 75 0 63
-20 56 -53 -18z m43 -3 c0 -24 -5 -35 -15 -35 -18 0 -19 9 -5 44 13 36 20 32
20 -9z"/>
<path d="M1794 2155 c-8 -20 -16 -53 -17 -73 -2 -35 0 -37 29 -40 22 -2 33 2
38 14 10 25 -2 30 -18 8 -11 -14 -18 -16 -26 -8 -9 9 -8 24 2 60 16 57 44 72
50 27 4 -24 5 -26 13 -9 11 24 -5 50 -34 54 -17 3 -25 -5 -37 -33z"/>
<path d="M1104 2169 l-21 -11 25 -68 c24 -68 24 -68 53 -58 16 5 29 14 29 19
0 5 -11 4 -24 -1 -21 -8 -26 -6 -32 12 -4 14 -1 25 10 33 22 16 20 22 -6 21
-30 -1 -37 33 -9 41 23 6 29 23 9 22 -7 0 -22 -5 -34 -10z"/>
<path d="M1916 2151 c-18 -28 -47 -124 -40 -131 16 -14 54 -22 54 -11 0 6 -6
11 -14 11 -21 0 -28 17 -17 39 7 13 18 18 33 14 l23 -4 -21 13 c-17 10 -20 18
-13 36 7 19 12 21 28 12 24 -12 31 -13 31 -1 0 12 -58 32 -64 22z"/>
<path d="M1005 2128 c-11 -6 -21 -12 -23 -13 -1 -1 12 -33 29 -71 18 -38 34
-64 36 -57 2 7 -1 21 -7 32 -8 17 -8 21 3 21 8 0 20 -7 27 -15 7 -8 20 -15 29
-15 13 1 11 5 -6 19 -13 11 -23 30 -23 43 0 24 -25 68 -38 68 -4 0 -16 -6 -27
-12z m43 -32 c8 -19 8 -27 -3 -36 -11 -9 -17 -5 -29 18 -8 16 -12 32 -9 36 13
13 30 5 41 -18z"/>
<path d="M2005 2104 c-19 -19 -19 -23 -1 -66 17 -41 7 -69 -18 -49 -8 7 -12
19 -9 27 3 8 1 14 -5 14 -22 0 -23 -35 -2 -52 27 -22 34 -22 50 -3 8 9 10 27
6 47 -12 61 -11 73 4 73 9 0 15 -9 14 -23 -1 -27 20 -24 24 4 4 29 -41 49 -63
28z"/>
<path d="M894 2076 c-19 -15 -18 -16 10 -71 16 -32 35 -59 42 -62 7 -3 24 4
37 14 24 17 24 19 9 46 -9 15 -23 26 -31 25 -21 -4 -25 -26 -4 -24 12 0 18 -6
18 -19 0 -11 -7 -20 -15 -20 -17 0 -64 80 -55 95 8 13 35 13 35 -1 0 -5 5 -7
10 -4 8 5 7 11 -1 21 -15 18 -30 18 -55 0z"/>
<path d="M1330 1890 c-24 -47 -19 -82 16 -109 26 -20 47 -81 23 -65 -8 5 -16
9 -19 9 -20 3 -50 18 -50 26 0 14 11 11 33 -8 16 -14 19 -15 15 -3 -5 17 -88
66 -88 53 0 -18 68 -83 88 -83 25 0 36 -14 52 -65 16 -51 40 -98 47 -92 2 3
-1 16 -8 29 -7 12 -25 66 -40 118 -14 52 -30 93 -35 91 -5 -2 -16 7 -23 21
-13 22 -13 32 -1 67 11 34 16 39 26 29 7 -7 20 -38 28 -68 13 -47 15 -50 15
-22 1 35 -33 112 -49 112 -5 0 -19 -18 -30 -40z"/>
<path d="M1544 1778 c-43 -30 -49 -39 -66 -98 -10 -36 -18 -79 -18 -97 0 -17
-4 -34 -9 -37 -17 -11 -41 6 -41 28 0 11 -5 28 -10 36 -7 11 -8 6 -6 -17 4
-31 4 -31 -24 -21 -19 6 -27 15 -23 24 3 8 0 14 -6 14 -6 0 -10 3 -10 8 4 22
-5 33 -47 62 -48 32 -68 35 -38 6 9 -9 14 -20 11 -23 -13 -12 25 -63 58 -81
l35 -18 -39 -24 c-50 -31 -51 -40 -7 -40 22 0 45 9 64 25 27 23 33 24 59 12
42 -17 219 -187 196 -187 -10 0 -28 -3 -40 -6 -18 -5 -25 -1 -32 17 -10 27
-54 71 -88 88 -26 13 -103 15 -103 2 0 -23 96 -92 149 -107 75 -21 79 -22 58
-23 -10 -1 -37 -10 -59 -21 -51 -24 -54 -25 -37 -3 12 14 10 14 -21 -2 -39
-19 -80 -54 -80 -67 0 -12 98 -10 123 3 12 7 43 34 68 60 53 57 81 62 146 25
81 -46 87 -37 8 11 -88 53 -105 76 -105 144 0 38 4 50 23 62 47 31 60 125 22
157 -11 9 -18 4 -34 -29 -12 -22 -21 -59 -21 -81 l0 -41 -26 20 c-15 12 -31
21 -36 21 -17 0 1 -54 26 -76 12 -11 27 -39 33 -62 10 -38 9 -41 -7 -32 -10 5
-41 36 -69 69 -41 47 -51 66 -51 95 0 20 5 36 11 36 5 0 7 -4 4 -10 -8 -13 -7
-13 48 6 26 9 47 20 47 25 0 12 -45 22 -75 17 -22 -5 -23 -3 -14 16 6 12 27
36 47 54 21 19 30 31 22 27 -8 -5 -26 -17 -39 -29 -22 -20 -23 -20 -20 -1 4
18 81 85 99 85 8 0 1 -32 -15 -72 -3 -9 -21 -23 -38 -32 -25 -12 -28 -16 -11
-16 24 0 58 34 73 73 25 66 7 73 -65 25z m121 -137 c7 -31 -11 -77 -39 -100
-14 -12 -16 -8 -16 28 0 47 25 115 39 107 5 -4 12 -19 16 -35z m-340 -31 c2
-18 0 -19 -18 -7 -11 7 -27 24 -36 38 l-15 24 23 -20 24 -20 -13 25 -12 25 23
-22 c12 -12 23 -31 24 -43z m229 21 c7 -11 -49 -25 -64 -16 -6 3 -8 11 -5 16
8 12 62 12 69 0z m40 -104 c6 -9 7 -19 3 -23 -9 -10 -44 23 -50 47 -5 19 -4
19 16 6 11 -7 25 -21 31 -30z m-214 25 c0 -12 -56 -42 -77 -41 -16 0 -16 1 2
9 12 4 27 15 34 24 14 17 41 22 41 8z m85 -118 c18 -8 41 -25 52 -36 18 -21
18 -21 -7 -8 l-25 13 24 -27 c29 -30 26 -31 -25 -10 -49 20 -105 64 -98 75 8
14 42 11 79 -7z m65 -159 c-21 -26 -66 -45 -104 -45 -26 0 -34 4 -30 14 6 17
52 38 65 30 6 -3 15 -1 22 4 13 10 49 20 56 15 2 -1 -2 -10 -9 -18z"/>
<path d="M1429 1419 c24 -11 46 -17 49 -14 6 6 -62 35 -80 34 -7 0 7 -9 31
-20z"/>
<path d="M1433 1710 c6 -48 21 -70 31 -45 4 11 2 14 -6 9 -8 -5 -9 -2 -5 9 3
9 2 19 -3 22 -6 4 -10 11 -10 17 0 6 9 3 20 -7 11 -10 20 -13 20 -8 0 6 -12
19 -26 28 l-27 17 6 -42z"/>
<path d="M1354 1654 c3 -9 6 -25 6 -37 0 -16 3 -18 11 -10 14 14 4 63 -12 63
-6 0 -8 -7 -5 -16z"/>
<path d="M1635 1500 c-14 -6 -15 -9 -5 -9 13 -1 13 -2 0 -11 -13 -8 -12 -10 3
-10 9 0 17 5 17 10 0 6 15 8 39 4 24 -4 41 -2 45 5 4 6 1 11 -7 11 -8 0 -27 2
-43 5 -16 2 -38 0 -49 -5z"/>
<path d="M1590 1097 c0 -18 24 -29 45 -20 23 8 12 28 -18 31 -18 2 -27 -1 -27
-11z"/>
<path d="M892 1084 c-33 -22 -27 -45 23 -94 24 -24 42 -47 39 -52 -8 -12 -58
-10 -73 5 -11 10 -13 9 -9 -2 7 -24 54 -34 85 -19 46 22 43 62 -7 113 -43 44
-41 63 4 45 14 -5 26 -6 26 -1 0 24 -57 27 -88 5z"/>
<path d="M1190 1011 l0 -91 28 0 27 0 -2 87 c-1 87 -2 88 -27 91 l-26 3 0 -90z"/>
<path d="M1474 1065 c-21 -20 -23 -25 -10 -25 14 0 17 -8 16 -37 -3 -65 -1
-73 26 -83 28 -11 64 2 64 22 0 9 -3 9 -12 0 -22 -22 -28 -13 -28 42 0 44 4
55 18 59 16 4 16 5 0 6 -11 1 -18 9 -18 21 0 27 -23 25 -56 -5z"/>
<path d="M1070 1053 c-51 -19 -68 -84 -30 -118 46 -42 120 -8 120 55 0 41 -51
77 -90 63z m68 -46 c12 -24 11 -31 -2 -53 -9 -13 -25 -24 -36 -24 -18 0 -20 7
-20 56 0 52 1 55 22 52 13 -2 29 -15 36 -31z"/>
<path d="M1730 1053 c-51 -19 -68 -84 -30 -118 44 -40 120 -9 120 50 0 42 -52
82 -90 68z m58 -25 c7 -7 12 -26 12 -43 0 -35 -15 -55 -42 -55 -15 0 -18 9
-18 55 0 46 3 55 18 55 10 0 23 -5 30 -12z"/>
<path d="M2053 1050 c-35 -14 -29 -50 14 -88 l38 -33 -45 5 c-41 4 -43 3 -26
-10 24 -17 37 -18 71 -2 35 16 33 51 -7 89 l-33 31 35 -6 c33 -5 34 -5 16 9
-22 17 -31 18 -63 5z"/>
<path d="M1282 1003 c1 -75 8 -82 83 -81 l65 0 0 64 c0 62 -1 64 -25 64 -23 0
-25 -3 -25 -48 0 -44 -12 -72 -32 -72 -4 0 -8 27 -8 60 0 60 0 60 -30 60 -28
0 -29 -1 -28 -47z"/>
<path d="M1590 985 c0 -65 0 -65 28 -65 28 0 28 0 28 65 0 65 0 65 -28 65 -28
0 -28 0 -28 -65z"/>
<path d="M1850 984 c0 -63 0 -64 28 -64 26 0 27 2 24 45 -4 43 9 75 29 75 5 0
9 -27 9 -60 0 -60 0 -60 30 -60 29 0 30 2 30 46 0 73 -9 83 -85 82 l-65 0 0
-64z"/>
</g>
</svg>
